# xmcd
#
# Track frame offsets:
#	150
#	18961
#	43273
#	71747
#	101040
#	127778
#	159208
#	189051
#	220896
#	250863
#	286458
#	313625
#
# Disc length: 4552 seconds
#
# Revision: 0
# Processed by: cddbd v1.5.2PL0 Copyright (c) Steve Scherf et al.
# Submitted via: EasyCDDAExtractor 2011.0.0.0
#
DISCID=a011c60c
DTITLE=Various Artist - Ibiza French Hits
DYEAR=2001
DGENRE=House
TTITLE0=Charlotte - Feel So Good
TTITLE1=Bel Amour - Bel Amour
TTITLE2=Lil Devious - Come Home
TTITLE3=Gemo and Fabrice - Walking
TTITLE4=Lego - El Ritmo De Verdad
TTITLE5=Superstar DJ's - Let's Be Free
TTITLE6=The Rock - Lovestar
TTITLE7=X-Press 2 - Musik X-press (The Bootleg mix)
TTITLE8=DJ Ionic feat. Sabrynaah Pope - South Beach Theme (Richard Grey vocal 
TTITLE8=mix)
TTITLE9=Antoine Clamaran - What!
TTITLE10=Junior Jack vs. Richard Grey - U Look Fantastic
TTITLE11=Acoustick feat. Darryl Pandy - Superstar (The Rock New Yorker dub)
EXTD=
EXTT0=
EXTT1=
EXTT2=
EXTT3=
EXTT4=
EXTT5=
EXTT6=
EXTT7=
EXTT8=
EXTT9=
EXTT10=
EXTT11=
PLAYORDER=
